<?xml version="1.0" standalone="no"?>
<svg width="567.429" height="466.714" viewBox="0 0 567.429 466.714" xmlns="http://www.w3.org/2000/svg">
<title>
/media/Projects/RIKEN_Cluster_2018/lipj/exp_201805/anaroot/users/analysis/plot/esBe10Excitation/ppET.svg
</title>
<desc>
Creator: ROOT Version 6.08/04
CreationDate: Fri Jul 26 09:41:20 2019</desc>
<defs>
</defs>
<rect x="0.5" y="0" width="566.929" height="466.214" fill="white"/>
<rect x="91.2087" y="23.3107" width="447.874" height="368.309" fill="white"/>
<rect x="91.2087" y="23.3107" width="447.874" height="368.309" fill="none" stroke="black"/>
<rect x="91.2087" y="23.3107" width="447.874" height="368.309" fill="white"/>
<rect x="91.2087" y="23.3107" width="447.874" height="368.309" fill="none" stroke="black"/>
<path d="M91.2087,391.62h 447.874" fill="none" stroke="black"/>
<path d="M91.2087,23.3107v 368.309" fill="none" stroke="black" stroke-dasharray=" 1, 2"/>
<path d="M147.193,23.3107v 368.309" fill="none" stroke="black" stroke-dasharray=" 1, 2"/>
<path d="M203.177,23.3107v 368.309" fill="none" stroke="black" stroke-dasharray=" 1, 2"/>
<path d="M259.161,23.3107v 368.309" fill="none" stroke="black" stroke-dasharray=" 1, 2"/>
<path d="M315.146,23.3107v 368.309" fill="none" stroke="black" stroke-dasharray=" 1, 2"/>
<path d="M371.13,23.3107v 368.309" fill="none" stroke="black" stroke-dasharray=" 1, 2"/>
<path d="M427.114,23.3107v 368.309" fill="none" stroke="black" stroke-dasharray=" 1, 2"/>
<path d="M483.098,23.3107v 368.309" fill="none" stroke="black" stroke-dasharray=" 1, 2"/>
<path d="M539.083,23.3107v 368.309" fill="none" stroke="black" stroke-dasharray=" 1, 2"/>
<path d="M91.2087,23.3107h 447.874" fill="none" stroke="black"/>
<path d="M91.2087,391.62v -368.309" fill="none" stroke="black"/>
<path d="M539.083,391.62h -447.874" fill="none" stroke="black" stroke-dasharray=" 1, 2"/>
<path d="M539.083,342.512h -447.874" fill="none" stroke="black" stroke-dasharray=" 1, 2"/>
<path d="M539.083,293.404h -447.874" fill="none" stroke="black" stroke-dasharray=" 1, 2"/>
<path d="M539.083,244.296h -447.874" fill="none" stroke="black" stroke-dasharray=" 1, 2"/>
<path d="M539.083,195.188h -447.874" fill="none" stroke="black" stroke-dasharray=" 1, 2"/>
<path d="M539.083,146.08h -447.874" fill="none" stroke="black" stroke-dasharray=" 1, 2"/>
<path d="M539.083,96.9725h -447.874" fill="none" stroke="black" stroke-dasharray=" 1, 2"/>
<path d="M539.083,47.8646h -447.874" fill="none" stroke="black" stroke-dasharray=" 1, 2"/>
<path d="M539.083,47.8646h -447.874" fill="none" stroke="black" stroke-dasharray=" 1, 2"/>
<path d="M539.083,391.62v -368.309" fill="none" stroke="black"/>
<path d="M91.2087,391.62h 447.874" fill="none" stroke="black"/>
<text xml:space="preserve" x="327.012" y="449.97" fill="black" font-size="21.886" font-family="Helvetica">
Proton Theta lab(deg)
</text>
<path d="M91.2087,391.62z" fill="none" stroke="black"/>
<path d="M102.406,391.62z" fill="none" stroke="black"/>
<path d="M113.602,391.62z" fill="none" stroke="black"/>
<path d="M124.799,391.62z" fill="none" stroke="black"/>
<path d="M135.996,391.62z" fill="none" stroke="black"/>
<path d="M147.193,391.62z" fill="none" stroke="black"/>
<path d="M158.39,391.62z" fill="none" stroke="black"/>
<path d="M169.587,391.62z" fill="none" stroke="black"/>
<path d="M180.783,391.62z" fill="none" stroke="black"/>
<path d="M191.98,391.62z" fill="none" stroke="black"/>
<path d="M203.177,391.62z" fill="none" stroke="black"/>
<path d="M214.374,391.62z" fill="none" stroke="black"/>
<path d="M225.571,391.62z" fill="none" stroke="black"/>
<path d="M236.768,391.62z" fill="none" stroke="black"/>
<path d="M247.965,391.62z" fill="none" stroke="black"/>
<path d="M259.161,391.62z" fill="none" stroke="black"/>
<path d="M270.358,391.62z" fill="none" stroke="black"/>
<path d="M281.555,391.62z" fill="none" stroke="black"/>
<path d="M292.752,391.62z" fill="none" stroke="black"/>
<path d="M303.949,391.62z" fill="none" stroke="black"/>
<path d="M315.146,391.62z" fill="none" stroke="black"/>
<path d="M326.343,391.62z" fill="none" stroke="black"/>
<path d="M337.539,391.62z" fill="none" stroke="black"/>
<path d="M348.736,391.62z" fill="none" stroke="black"/>
<path d="M359.933,391.62z" fill="none" stroke="black"/>
<path d="M371.13,391.62z" fill="none" stroke="black"/>
<path d="M382.327,391.62z" fill="none" stroke="black"/>
<path d="M393.524,391.62z" fill="none" stroke="black"/>
<path d="M404.72,391.62z" fill="none" stroke="black"/>
<path d="M415.917,391.62z" fill="none" stroke="black"/>
<path d="M427.114,391.62z" fill="none" stroke="black"/>
<path d="M438.311,391.62z" fill="none" stroke="black"/>
<path d="M449.508,391.62z" fill="none" stroke="black"/>
<path d="M460.705,391.62z" fill="none" stroke="black"/>
<path d="M471.902,391.62z" fill="none" stroke="black"/>
<path d="M483.098,391.62z" fill="none" stroke="black"/>
<path d="M494.295,391.62z" fill="none" stroke="black"/>
<path d="M505.492,391.62z" fill="none" stroke="black"/>
<path d="M516.689,391.62z" fill="none" stroke="black"/>
<path d="M527.886,391.62z" fill="none" stroke="black"/>
<path d="M539.083,391.62z" fill="none" stroke="black"/>
<text xml:space="preserve" x="78.4731" y="411.795" fill="black" font-size="21.886" font-family="Helvetica">
40
</text>
<text xml:space="preserve" x="134.516" y="411.795" fill="black" font-size="21.886" font-family="Helvetica">
45
</text>
<text xml:space="preserve" x="190.559" y="411.795" fill="black" font-size="21.886" font-family="Helvetica">
50
</text>
<text xml:space="preserve" x="246.602" y="411.795" fill="black" font-size="21.886" font-family="Helvetica">
55
</text>
<text xml:space="preserve" x="302.646" y="411.795" fill="black" font-size="21.886" font-family="Helvetica">
60
</text>
<text xml:space="preserve" x="358.689" y="411.795" fill="black" font-size="21.886" font-family="Helvetica">
65
</text>
<text xml:space="preserve" x="414.732" y="411.795" fill="black" font-size="21.886" font-family="Helvetica">
70
</text>
<text xml:space="preserve" x="470.775" y="411.795" fill="black" font-size="21.886" font-family="Helvetica">
75
</text>
<text xml:space="preserve" x="526.818" y="411.795" fill="black" font-size="21.886" font-family="Helvetica">
80
</text>
<path d="M91.2087,23.3107h 447.874" fill="none" stroke="black"/>
<path d="M91.2087,23.3107z" fill="none" stroke="black"/>
<path d="M102.406,23.3107z" fill="none" stroke="black"/>
<path d="M113.602,23.3107z" fill="none" stroke="black"/>
<path d="M124.799,23.3107z" fill="none" stroke="black"/>
<path d="M135.996,23.3107z" fill="none" stroke="black"/>
<path d="M147.193,23.3107z" fill="none" stroke="black"/>
<path d="M158.39,23.3107z" fill="none" stroke="black"/>
<path d="M169.587,23.3107z" fill="none" stroke="black"/>
<path d="M180.783,23.3107z" fill="none" stroke="black"/>
<path d="M191.98,23.3107z" fill="none" stroke="black"/>
<path d="M203.177,23.3107z" fill="none" stroke="black"/>
<path d="M214.374,23.3107z" fill="none" stroke="black"/>
<path d="M225.571,23.3107z" fill="none" stroke="black"/>
<path d="M236.768,23.3107z" fill="none" stroke="black"/>
<path d="M247.965,23.3107z" fill="none" stroke="black"/>
<path d="M259.161,23.3107z" fill="none" stroke="black"/>
<path d="M270.358,23.3107z" fill="none" stroke="black"/>
<path d="M281.555,23.3107z" fill="none" stroke="black"/>
<path d="M292.752,23.3107z" fill="none" stroke="black"/>
<path d="M303.949,23.3107z" fill="none" stroke="black"/>
<path d="M315.146,23.3107z" fill="none" stroke="black"/>
<path d="M326.343,23.3107z" fill="none" stroke="black"/>
<path d="M337.539,23.3107z" fill="none" stroke="black"/>
<path d="M348.736,23.3107z" fill="none" stroke="black"/>
<path d="M359.933,23.3107z" fill="none" stroke="black"/>
<path d="M371.13,23.3107z" fill="none" stroke="black"/>
<path d="M382.327,23.3107z" fill="none" stroke="black"/>
<path d="M393.524,23.3107z" fill="none" stroke="black"/>
<path d="M404.72,23.3107z" fill="none" stroke="black"/>
<path d="M415.917,23.3107z" fill="none" stroke="black"/>
<path d="M427.114,23.3107z" fill="none" stroke="black"/>
<path d="M438.311,23.3107z" fill="none" stroke="black"/>
<path d="M449.508,23.3107z" fill="none" stroke="black"/>
<path d="M460.705,23.3107z" fill="none" stroke="black"/>
<path d="M471.902,23.3107z" fill="none" stroke="black"/>
<path d="M483.098,23.3107z" fill="none" stroke="black"/>
<path d="M494.295,23.3107z" fill="none" stroke="black"/>
<path d="M505.492,23.3107z" fill="none" stroke="black"/>
<path d="M516.689,23.3107z" fill="none" stroke="black"/>
<path d="M527.886,23.3107z" fill="none" stroke="black"/>
<path d="M539.083,23.3107z" fill="none" stroke="black"/>
<path d="M91.2087,391.62v -368.309" fill="none" stroke="black"/>
<g transform="rotate(-90,32.9888,220.924)">
<text xml:space="preserve" x="32.9888" y="220.924" fill="black" font-size="21.886" font-family="Helvetica">
Proton Energy(MeV)
</text>
</g>
<path d="M91.2087,391.62z" fill="none" stroke="black"/>
<path d="M91.2087,379.343z" fill="none" stroke="black"/>
<path d="M91.2087,367.066z" fill="none" stroke="black"/>
<path d="M91.2087,354.789z" fill="none" stroke="black"/>
<path d="M91.2087,342.512z" fill="none" stroke="black"/>
<path d="M91.2087,330.235z" fill="none" stroke="black"/>
<path d="M91.2087,317.958z" fill="none" stroke="black"/>
<path d="M91.2087,305.681z" fill="none" stroke="black"/>
<path d="M91.2087,293.404z" fill="none" stroke="black"/>
<path d="M91.2087,281.127z" fill="none" stroke="black"/>
<path d="M91.2087,268.85z" fill="none" stroke="black"/>
<path d="M91.2087,256.573z" fill="none" stroke="black"/>
<path d="M91.2087,244.296z" fill="none" stroke="black"/>
<path d="M91.2087,232.019z" fill="none" stroke="black"/>
<path d="M91.2087,219.742z" fill="none" stroke="black"/>
<path d="M91.2087,207.465z" fill="none" stroke="black"/>
<path d="M91.2087,195.188z" fill="none" stroke="black"/>
<path d="M91.2087,182.911z" fill="none" stroke="black"/>
<path d="M91.2087,170.634z" fill="none" stroke="black"/>
<path d="M91.2087,158.357z" fill="none" stroke="black"/>
<path d="M91.2087,146.08z" fill="none" stroke="black"/>
<path d="M91.2087,133.803z" fill="none" stroke="black"/>
<path d="M91.2087,121.526z" fill="none" stroke="black"/>
<path d="M91.2087,109.249z" fill="none" stroke="black"/>
<path d="M91.2087,96.9725z" fill="none" stroke="black"/>
<path d="M91.2087,84.6955z" fill="none" stroke="black"/>
<path d="M91.2087,72.4186z" fill="none" stroke="black"/>
<path d="M91.2087,60.1416z" fill="none" stroke="black"/>
<path d="M91.2087,47.8646z" fill="none" stroke="black"/>
<path d="M91.2087,47.8646z" fill="none" stroke="black"/>
<path d="M91.2087,35.5877z" fill="none" stroke="black"/>
<path d="M91.2087,23.3107z" fill="none" stroke="black"/>
<text xml:space="preserve" x="76.8486" y="399.612" fill="black" font-size="21.886" font-family="Helvetica">
0
</text>
<text xml:space="preserve" x="64.6653" y="350.067" fill="black" font-size="21.886" font-family="Helvetica">
20
</text>
<text xml:space="preserve" x="64.6653" y="301.333" fill="black" font-size="21.886" font-family="Helvetica">
40
</text>
<text xml:space="preserve" x="64.6653" y="251.788" fill="black" font-size="21.886" font-family="Helvetica">
60
</text>
<text xml:space="preserve" x="64.6653" y="203.055" fill="black" font-size="21.886" font-family="Helvetica">
80
</text>
<text xml:space="preserve" x="52.482" y="153.509" fill="black" font-size="21.886" font-family="Helvetica">
100
</text>
<text xml:space="preserve" x="52.482" y="104.776" fill="black" font-size="21.886" font-family="Helvetica">
120
</text>
<text xml:space="preserve" x="52.482" y="55.2309" fill="black" font-size="21.886" font-family="Helvetica">
140
</text>
<path d="M539.083,391.62v -368.309" fill="none" stroke="black"/>
<path d="M539.083,391.62z" fill="none" stroke="black"/>
<path d="M539.083,379.343z" fill="none" stroke="black"/>
<path d="M539.083,367.066z" fill="none" stroke="black"/>
<path d="M539.083,354.789z" fill="none" stroke="black"/>
<path d="M539.083,342.512z" fill="none" stroke="black"/>
<path d="M539.083,330.235z" fill="none" stroke="black"/>
<path d="M539.083,317.958z" fill="none" stroke="black"/>
<path d="M539.083,305.681z" fill="none" stroke="black"/>
<path d="M539.083,293.404z" fill="none" stroke="black"/>
<path d="M539.083,281.127z" fill="none" stroke="black"/>
<path d="M539.083,268.85z" fill="none" stroke="black"/>
<path d="M539.083,256.573z" fill="none" stroke="black"/>
<path d="M539.083,244.296z" fill="none" stroke="black"/>
<path d="M539.083,232.019z" fill="none" stroke="black"/>
<path d="M539.083,219.742z" fill="none" stroke="black"/>
<path d="M539.083,207.465z" fill="none" stroke="black"/>
<path d="M539.083,195.188z" fill="none" stroke="black"/>
<path d="M539.083,182.911z" fill="none" stroke="black"/>
<path d="M539.083,170.634z" fill="none" stroke="black"/>
<path d="M539.083,158.357z" fill="none" stroke="black"/>
<path d="M539.083,146.08z" fill="none" stroke="black"/>
<path d="M539.083,133.803z" fill="none" stroke="black"/>
<path d="M539.083,121.526z" fill="none" stroke="black"/>
<path d="M539.083,109.249z" fill="none" stroke="black"/>
<path d="M539.083,96.9725z" fill="none" stroke="black"/>
<path d="M539.083,84.6955z" fill="none" stroke="black"/>
<path d="M539.083,72.4186z" fill="none" stroke="black"/>
<path d="M539.083,60.1416z" fill="none" stroke="black"/>
<path d="M539.083,47.8646z" fill="none" stroke="black"/>
<path d="M539.083,47.8646z" fill="none" stroke="black"/>
<path d="M539.083,35.5877z" fill="none" stroke="black"/>
<path d="M539.083,23.3107z" fill="none" stroke="black"/>
<path d="M539.083,361.083l -0.731221, -0.397945" fill="none" stroke="#ff0000" stroke-width="3"/>
<path d="M538.351,360.685l -1.13321, -0.622933l -1.13305, -0.628826l -1.13291, -0.63521l -1.13274, -0.641103l -1.13258, -0.646996l -1.13243, -0.653135l -1.13227, -0.659028l -1.1321, -0.665166l -1.13193, -0.671305l -1.13178, -0.677197l -1.1316,
 -0.68309l -1.13144, -0.689229l -1.13126, -0.695122l -1.13109, -0.701015l -1.13093, -0.707153l -1.13075, -0.713046l -1.13058, -0.718939l -1.1304, -0.724832l -1.13022, -0.730971l -1.13003, -0.736864l -1.12986, -0.742511l -1.12967, -0.748649l -1.12949,
 -0.754542l -1.12931, -0.760681l -1.12912, -0.766328l -1.12893, -0.772221l -1.12874, -0.778114l -1.12855, -0.784007l -1.12836, -0.789654l -1.12816, -0.795793l -1.12797, -0.80144l -1.12778, -0.807579l -1.12758, -0.813226l -1.12739, -0.818874l
 -1.12718, -0.825012l -1.12699, -0.83066l -1.12677, -0.836553l -1.12657, -0.8422l -1.12637, -0.848093l -1.12616, -0.85374l -1.12596, -0.859633l -1.12574, -0.865281l -1.12553, -0.871174l -1.12532, -0.876821l -1.12512, -0.882468l -1.12489, -0.888361l
 -1.12467, -0.894009l -1.12447, -0.899656l -1.12423, -0.905549l -1.12403, -0.910951l -1.12379, -0.916844l -1.12357, -0.922491l -1.12336, -0.928139l -1.12312, -0.933786l -1.12291, -0.939433l -1.12266, -0.944835l -1.12245, -0.950728l -1.12222,
 -0.956376l -1.12198, -0.961778l -1.12176, -0.967425l -1.12151, -0.973072l -1.12129, -0.97872l -1.12104, -0.984122l -1.1208, -0.989769l -1.12057, -0.995416l -1.12033, -1.00082l -1.12009, -1.00647l -1.11984, -1.01187l -1.1196, -1.01727l -1.11936,
 -1.02292l -1.11911, -1.02856l -1.11886, -1.03372l -1.11862, -1.03937l -1.11836, -1.04477l -1.11811, -1.05017l -1.11786, -1.05582l -1.11761, -1.06098l -1.11734, -1.06662l -1.1171, -1.07178l -1.11684, -1.07743l -1.11658, -1.08258l -1.11633, -1.08823l
 -1.11606, -1.09339l -1.11581, -1.09879l -1.11553, -1.10419l -1.11527, -1.10935l -1.11502, -1.11475l -1.11474, -1.12015l -1.11448, -1.12531l -1.11421, -1.13071l -1.11394, -1.13586l -1.11366, -1.14127l -1.1134, -1.14642l -1.11312, -1.15182l -1.11284,
 -1.15674l -1.11258, -1.16214l -1.1123, -1.16754l -1.11203, -1.17245l -1.11175, -1.17785l -1.11146, -1.18276l -1.11119, -1.18816l -1.1109, -1.19308l -1.11063, -1.19848l -1.11032, -1.20339l -1.11006, -1.20854l -1.10976, -1.2137l -1.10947, -1.21886l
 -1.10919, -1.22377l -1.10889, -1.22892l -1.10861, -1.23384l -1.10832, -1.23924l -1.10803, -1.2439l -1.10774, -1.24906l -1.10744, -1.25397l -1.10714, -1.25913l -1.10684, -1.26404l -1.10655, -1.26895l -1.10626, -1.2741l -1.10595, -1.27877l -1.10566,
 -1.28393l -1.10535, -1.28859l -1.10505, -1.29375l -1.10475, -1.29841l -1.10443, -1.30332l -1.10414, -1.30848l -1.10383, -1.3129l -1.10352, -1.31806l -1.10321, -1.32272l -1.10291, -1.32763l -1.1026, -1.33254l -1.10229, -1.33696l -1.10197, -1.34212l
 -1.10167, -1.34678l -1.10134, -1.35145l -1.10103, -1.35611l -1.10072, -1.36102l -1.1004, -1.36544l -1.10008, -1.37036l -1.09977, -1.37502l -1.09945, -1.37969l -1.09913, -1.38435l -1.0988, -1.38902l -1.09849, -1.39344l -1.09816, -1.39835l -1.09784,
 -1.40277l -1.0975, -1.40719l -1.09719, -1.4121l -1.09687, -1.41652l -1.09654, -1.42094l -1.09621, -1.4256l -1.09588, -1.43002l -1.09554, -1.43469l -1.09522, -1.43911l -1.0949, -1.44353l -1.09455, -1.44795l -1.09422, -1.45237l -1.09389, -1.45703l
 -1.09356, -1.4612l -1.09322, -1.46562l -1.09289, -1.47004l -1.09254, -1.47446l -1.09221, -1.47888l -1.09187, -1.48306l -1.09154, -1.48748l -1.09119, -1.4919l -1.09085, -1.49607l -1.09051, -1.50025l -1.09017, -1.50467l -1.08982, -1.50884l -1.08949,
 -1.51301l -1.08913, -1.51743l -1.08879, -1.52161l -1.08845, -1.52578l -1.0881, -1.52996l -1.08775, -1.53388l -1.0874, -1.5383l -1.08706, -1.54248l -1.0867, -1.54641l -1.08636, -1.55058l -1.086, -1.55476l -1.08565, -1.55868l -1.0853, -1.56286l
 -1.08494, -1.56679l -1.08459, -1.57072l -1.08425, -1.57489l -1.08388, -1.57906l -1.08353, -1.58275l -1.08317, -1.58692l -1.08281, -1.59134l -1.08246, -1.59355l -1.0821, -1.59846l -1.08174, -1.60337l -1.08138, -1.60583l -1.08102, -1.61074l -1.08065,
 -1.61319l -1.08029, -1.6181l -1.07994, -1.62301l -1.07958, -1.62547l -1.07921, -1.62793l -1.07884, -1.63284l -1.07848, -1.63775l -1.07812, -1.6402l -1.07774, -1.64511l -1.07738, -1.64757l -1.07703, -1.65248l -1.07664, -1.65494l -1.07629, -1.65985l
 -1.07591, -1.6623l -1.07555, -1.66721l -1.07518, -1.66967l -1.0748, -1.67212l -1.07444, -1.67703l -1.07406, -1.68194l -1.07369, -1.6844l -1.07332, -1.68686l -1.07295, -1.69177l -1.07257, -1.69422l -1.0722, -1.69913l -1.07183, -1.70159l -1.07145,
 -1.70404l -1.07107, -1.70895l -1.0707, -1.71141l -1.07032, -1.71632l -1.06995, -1.71878l -1.06957, -1.72123l -1.06919, -1.72614l -1.06882, -1.7286l -1.06843, -1.73351l -1.06806, -1.73351l -1.06768, -1.74087l -1.06729, -1.74087l -1.06691, -1.74578l
 -1.06653, -1.74824l -1.06615, -1.7507l -1.06577, -1.75561l -1.06538, -1.75806l -1.06501, -1.76052l -1.06462, -1.76543l -1.06424, -1.76543l -1.06386, -1.77034l -1.06348, -1.77525l -1.06308, -1.77525l -1.0627, -1.78016l -1.06231, -1.78262l -1.06193,
 -1.78507l -1.06154, -1.78998l -1.06116, -1.78998l -1.06078, -1.79489l -1.06039, -1.79735l -1.05999, -1.80226l -1.05961, -1.80226l -1.05922, -1.80717l -1.05883, -1.80962l -1.05844, -1.81208l -1.05806, -1.81454l -1.05767, -1.81699l -1.05727, -1.81945l
 -1.05689, -1.82436l -1.05649, -1.82681l -0.99649, -1.72369" fill="none" stroke="#ff0000" stroke-width="3"/>
<path d="M91.2087,391.561l 24.4521, -0.00312847" fill="none" stroke="#00ff00" stroke-width="3" stroke-dasharray=" 3, 3"/>
<path d="M115.661,391.558l 90.6819, -0.0220148l 66.9864, -0.0283045l 50.3427, -0.0345938l 38.6609, -0.0408825l 30.3259, -0.0471713l 24.2477, -0.0534598l 19.7149, -0.0597471l 16.2623, -0.0660329l 13.5813, -0.0723212l 11.4631, -0.0786045l 9.76359,
 -0.0848928l 8.38097, -0.0911737l 7.24222, -0.097457l 6.29387, -0.10374l 5.49622, -0.110021l 4.81923, -0.116302l 4.23998, -0.122578l 3.74063, -0.128859l 3.30729, -0.135133l 2.92886, -0.141409l 2.59652, -0.147685l 2.34527, -0.153953" fill="none"
 stroke="#00ff00" stroke-width="3" stroke-dasharray=" 3, 3"/>
<path d="M539.083,374.746l -0.496603, -0.305286" fill="none" stroke="#00ff00" stroke-width="3" stroke-dasharray=" 3, 3"/>
<path d="M538.586,374.441l -0.755597, -0.464339l -0.765405, -0.470478l -0.774822, -0.476567l -0.78388, -0.482681l -0.792591, -0.488771l -0.800955, -0.494885l -0.809017, -0.500974l -0.816777, -0.507063l -0.824256, -0.513128l -0.831445, -0.519217l
 -0.838398, -0.525307l -0.845082, -0.531347l -0.851532, -0.537412l -0.85778, -0.543477l -0.863781, -0.549542l -0.869603, -0.555655l -0.875202, -0.561548l -0.880632, -0.567687l -0.885872, -0.57358l -0.890945, -0.579718l -0.895849, -0.585857l
 -0.900596, -0.591504l -0.905187, -0.597888l -0.909632, -0.603781l -0.913943, -0.609674l -0.918108, -0.615813l -0.92215, -0.621706l -0.926069, -0.627599l -0.929865, -0.633737l -0.933549, -0.639384l -0.93712, -0.645768l -0.940591, -0.651416l
 -0.943939, -0.657554l -0.947209, -0.663447l -0.950366, -0.669095l -0.953445, -0.675479l -0.956435, -0.681126l -0.959335, -0.687019l -0.962145, -0.692912l -0.964889, -0.69905l -0.967553, -0.704698l -0.970129, -0.710591l -0.972648, -0.716729l
 -0.975089, -0.722377l -0.977463, -0.72827l -0.97978, -0.734163l -0.98202, -0.73981l -0.984214, -0.745948l -0.986342, -0.751596l -0.988413, -0.757489l -0.990429, -0.763382l -0.992388, -0.769029l -0.994292, -0.774922l -0.996161, -0.780815l -0.997964,
 -0.786462l -0.999733, -0.792355l -1.00145, -0.798003l -1.00311, -0.80365l -1.00475, -0.809789l -1.00633, -0.815191l -1.00788, -0.821084l -1.00938, -0.826731l -1.01085, -0.832624l -1.01227, -0.838271l -1.01367, -0.843919l -1.01504, -0.849566l
 -1.01635, -0.855459l -1.01764, -0.860861l -1.0189, -0.866754l -1.02012, -0.872401l -1.02132, -0.878049l -1.02249, -0.883696l -1.02362, -0.889343l -1.02471, -0.894745l -1.0258, -0.900638l -1.02685, -0.906286l -1.02787, -0.911688l -1.02887, -0.917335l
 -1.02985, -0.922982l -1.03078, -0.92863l -1.03172, -0.934032l -1.03262, -0.939679l -1.03349, -0.945081l -1.03435, -0.950974l -1.03519, -0.95613l -1.036, -0.961778l -1.03679, -0.967425l -1.03757, -0.972827l -1.03832, -0.978229l -1.03906, -0.983876l
 -1.03976, -0.989278l -1.04047, -0.99468l -1.04114, -1.00033l -1.0418, -1.00548l -1.04245, -1.01113l -1.04306, -1.01653l -1.04368, -1.02193l -1.04429, -1.02734l -1.04485, -1.03249l -1.04542, -1.03814l -1.04596, -1.04354l -1.0465, -1.0487l -1.04702,
 -1.05435l -1.04752, -1.0595l -1.04801, -1.0649l -1.04848, -1.07006l -1.04895, -1.07546l -1.0494, -1.08086l -1.04984, -1.08602l -1.05028, -1.09142l -1.05068, -1.09658l -1.05108, -1.10198l -1.05146, -1.10689l -1.05185, -1.11254l -1.05221, -1.11745l
 -1.05257, -1.12285l -1.05292, -1.12801l -1.05325, -1.13316l -1.05357, -1.13832l -1.05389, -1.14372l -1.05418, -1.14863l -1.05449, -1.15379l -1.05477, -1.15895l -1.05505, -1.1641l -1.0553, -1.16926l -1.05556, -1.17441l -1.05581, -1.17933l -1.05604,
 -1.18448l -1.05628, -1.18964l -1.05649, -1.19455l -1.05671, -1.19971l -1.0569, -1.20462l -1.05711, -1.20977l -1.0573, -1.21468l -1.05748, -1.21959l -1.05764, -1.22475l -1.05781, -1.22966l -1.05797, -1.23457l -1.05811, -1.23948l -1.05826, -1.24439l
 -1.0584, -1.24955l -1.05852, -1.25421l -1.05865, -1.25913l -1.05876, -1.26428l -1.05886, -1.26895l -1.05898, -1.27386l -1.05907, -1.27852l -1.05915, -1.28343l -1.05924, -1.28834l -1.05931, -1.29326l -1.05939, -1.29792l -1.05946, -1.30259l -1.05951,
 -1.3075l -1.05956, -1.31241l -1.05961, -1.31683l -1.05966, -1.32174l -1.05969, -1.3264l -1.05973, -1.33131l -1.05975, -1.33573l -1.05977, -1.34064l -1.05979, -1.34506l -1.05979, -1.34973l -1.0598, -1.35464l -1.0598, -1.35906l -1.05979, -1.36373l
 -1.05979, -1.36815l -1.05978, -1.37306l -1.05976, -1.37748l -1.05974, -1.3819l -1.0597, -1.38656l -1.05968, -1.39123l -1.05964, -1.3954l -1.0596, -1.40031l -1.05956, -1.40448l -1.0595, -1.40915l -1.05946, -1.41357l -1.0594, -1.41799l -1.05933,
 -1.42241l -1.05927, -1.42683l -1.0592, -1.43125l -1.05913, -1.43567l -1.05905, -1.43984l -1.05898, -1.44451l -1.05889, -1.44868l -1.0588, -1.4531l -1.05871, -1.45728l -1.05862, -1.4617l -1.05851, -1.46612l -1.05842, -1.47029l -1.0583, -1.47446l
 -1.0582, -1.47864l -1.05808, -1.48306l -1.05797, -1.48723l -1.05786, -1.49141l -1.05773, -1.49558l -1.0576, -1.49975l -1.05748, -1.50417l -1.05735, -1.50786l -1.05721, -1.51228l -1.05707, -1.51645l -1.05694, -1.52038l -1.05678, -1.52455l -1.05665,
 -1.52848l -1.0565, -1.53266l -1.05633, -1.53683l -1.05619, -1.54076l -1.05603, -1.54469l -1.05587, -1.54862l -1.05571, -1.55279l -1.05555, -1.55647l -1.05537, -1.56065l -1.0552, -1.56458l -1.05503, -1.56851l -1.05486, -1.57243l -1.05468, -1.57612l
 -1.0545, -1.5798l -1.05432, -1.58373l -1.05413, -1.58864l -1.05394, -1.59109l -1.05375, -1.59601l -1.05356, -1.59846l -1.05337, -1.60337l -1.05316, -1.60583l -1.05296, -1.61074l -1.05276, -1.61565l -1.05257, -1.6181l -1.05235, -1.62056l -1.05215,
 -1.62547l -1.05194, -1.63038l -1.05172, -1.63038l -1.05152, -1.63775l -1.05129, -1.6402l -1.05107, -1.64266l -1.05086, -1.64757l -1.05063, -1.65002l -1.05041, -1.65494l -1.05019, -1.65739l -1.04995, -1.6623l -1.04973, -1.66476l -1.0495, -1.66721l
 -1.04926, -1.67212l -1.04903, -1.67458l -1.04879, -1.67949l -1.04855, -1.68194l -1.04831, -1.6844l -1.04807, -1.68931l -1.04782, -1.69177l -1.04758, -1.69668l -1.04733, -1.69913l -1.04708, -1.70159l -1.04684, -1.70404l -1.04658, -1.70895l -1.04632,
 -1.71386l -1.04607, -1.71386l -1.04582, -1.71878l -1.04556, -1.72123l -1.04529, -1.72614l -1.04504, -1.7286l -1.04477, -1.73105l -1.04451, -1.73351l -1.04424, -1.73842l -1.04398, -1.74087l -1.0437, -1.74333l -1.04343, -1.74824l -1.04317, -1.74824l
 -1.0429, -1.75315l -1.04262, -1.75561l -1.04235, -1.76052l -1.04207, -1.76052l -1.04179, -1.76543l -1.04151, -1.76788l -1.04123, -1.77279l -1.04095, -1.77279l -1.04067, -1.7777l -1.04038, -1.7777l -1.0401, -1.78262l -1.03982, -1.78507l -1.03952,
 -1.78998l -1.03924, -1.78998l -1.03894, -1.79489l -1.03865, -1.79489l -1.03836, -1.7998l -1.03807, -1.80226l -1.03777, -1.80471l -1.03748, -1.80962l -1.03719, -1.80962l -1.03687, -1.81208l -0.285764, -0.5009" fill="none" stroke="#00ff00"
 stroke-width="3" stroke-dasharray=" 3, 3"/>
<path d="M91.2087,391.311l 23.7685, -0.0200689" fill="none" stroke="#0000ff" stroke-width="3" stroke-dasharray=" 3, 3"/>
<path d="M114.977,391.291l 41.6652, -0.0464634l 36.3705, -0.0526584l 31.7873, -0.0588533l 27.8509, -0.0650434l 24.4812, -0.0712383l 21.5978, -0.0774284l 19.1269, -0.0836184l 17.0036, -0.0898109l 15.1725, -0.0959985l 13.5872, -0.102186l 12.2089,
 -0.108371l 11.0055, -0.114561l 9.95022, -0.120744l 9.02101, -0.126927l 8.19945, -0.133109l 7.47023, -0.139292l 6.82048, -0.145472l 6.2395, -0.151648l 5.7182, -0.157828l 5.24887, -0.164001l 4.82506, -0.170181l 4.44119, -0.176346l 4.09247, -0.182509l
 3.77489, -0.188697l 3.48487, -0.194835l 3.21941, -0.201023l 2.97584, -0.207186l 2.75184, -0.213325l 2.54545, -0.219512l 2.35484, -0.225651l 2.1785, -0.231814l 2.01506, -0.237952l 1.86329, -0.244115l 1.72213, -0.250254l 1.59062, -0.256392l 1.46792,
 -0.262555l 1.35325, -0.268669l 1.24595, -0.274832l 1.14539, -0.280946l 1.05105, -0.287085l 0.962392, -0.293223l 0.87902, -0.299337l 0.800485, -0.305451l 0.726452, -0.311589l 0.656561, -0.317703l 0.590533, -0.323793l 0.528077, -0.329931l 0.468946,
 -0.336021l 0.412929, -0.342135l 0.359766, -0.348224l 0.309324, -0.354338l 0.261379, -0.360427l 0.215797, -0.366517l 0.172409, -0.372581l 0.131093, -0.378695l 0.0917022, -0.38476l 0.0541256, -0.390825l 0.0182733, -0.396914l -0.0159891, -0.402955l
 -0.0487287, -0.409044l -0.0800351, -0.415084l -0.110009, -0.421149l -0.138707, -0.427214l -0.166206, -0.433254l -0.192575, -0.43927l -0.217857, -0.445335l -0.242132, -0.45135l -0.265444, -0.457391l -0.287849, -0.463431l -0.309369, -0.469422l
 -0.330072, -0.475462l -0.350002, -0.481454l -0.369183, -0.487469l -0.387646, -0.49346l -0.405449, -0.499476l -0.422603, -0.505467l -0.439152, -0.511434l -0.455107, -0.517425l -0.470514, -0.523392l -0.485383, -0.529383l -0.499749, -0.535325l
 -0.513622, -0.541218l -0.527047, -0.547307l -0.540013, -0.5532l -0.552553, -0.559093l -0.564702, -0.565232l -0.576436, -0.570879l -0.587823, -0.577017l -0.598841, -0.58291l -0.609512, -0.588803l -0.619846, -0.594696l -0.62989, -0.600589l -0.639598,
 -0.606482l -0.649037, -0.612375l -0.658173, -0.618268l -0.667064, -0.624161l -0.675685, -0.630054l -0.684038, -0.635947l -0.692178, -0.641594l -0.700072, -0.647733l -0.707731, -0.65338l -0.715199, -0.659519l -0.722443, -0.664921l -0.729497,
 -0.671059l -0.736338, -0.676706l -0.743012, -0.682845l -0.749506, -0.688247l -0.75581, -0.694385l -0.761968, -0.700033l -0.767936, -0.70568l -0.77377, -0.711573l -0.779446, -0.717466l -0.784966, -0.723113l -0.790352, -0.728761l -0.795603, -0.734654l
 -0.80072, -0.740547l -0.805703, -0.746194l -0.810562, -0.751841l -0.81531, -0.757489l -0.819934, -0.763382l -0.824435, -0.769029l -0.828836, -0.774677l -0.833135, -0.780324l -0.837323, -0.786217l -0.84141, -0.791864l -0.845396, -0.797266l -0.849303,
 -0.803159l -0.853099, -0.808807l -0.856828, -0.814454l -0.860444, -0.820101l -0.863994, -0.825503l -0.867465, -0.831396l -0.870835, -0.836798l -0.874149, -0.842691l -0.877374, -0.848093l -0.880543, -0.85374l -0.883622, -0.859142l -0.886645,
 -0.865035l -0.88959, -0.870437l -0.892479, -0.875839l -0.8953, -0.881732l -0.898055, -0.886888l -0.900753, -0.892781l -0.903395, -0.897937l -0.905982, -0.90383l -0.908501, -0.908987l -0.910976, -0.914634l -0.913394, -0.920281l -0.915757, -0.925438l
 -0.918086, -0.931085l -0.920336, -0.936487l -0.922565, -0.941889l -0.924737, -0.947536l -0.926853, -0.952938l -0.928936, -0.958094l -0.930985, -0.963742l -0.932966, -0.969144l -0.934926, -0.9743l -0.93684, -0.979947l -0.93871, -0.985104l -0.940547,
 -0.990506l -0.942338, -0.995908l -0.944107, -1.00131l -0.94582, -1.00671l -0.947511, -1.01187l -0.949168, -1.01727l -0.950792, -1.02243l -0.952371, -1.02783l -0.953927, -1.03323l -0.95545, -1.03839l -0.956939, -1.04354l -0.958394, -1.04894l
 -0.959839, -1.05435l -0.961238, -1.05926l -0.962604, -1.06466l -0.963959, -1.06981l -0.96528, -1.07497l -0.966568, -1.08013l -0.967833, -1.08553l -0.969076, -1.09044l -0.970297, -1.0956l -0.971484, -1.101l -0.972659, -1.10591l -0.973801, -1.11107l
 -0.97491, -1.11622l -0.976018, -1.12138l -0.977093, -1.12653l -0.978157, -1.13145l -0.979176, -1.1366l -0.980195, -1.14151l -0.981191, -1.14667l -0.982165, -1.15182l -0.983106, -1.15649l -0.984046, -1.16189l -0.984965, -1.1668l -0.985849, -1.17171l
 -0.986734, -1.17662l -0.987596, -1.18178l -0.988424, -1.18645l -0.989264, -1.1916l -0.990059, -1.19651l -0.990854, -1.20142l -0.991638, -1.20633l -0.992388, -1.21125l -0.993127, -1.21616l -0.993866, -1.22107l -0.994571, -1.22573l -0.995266,
 -1.23064l -0.99596, -1.23555l -0.996609, -1.24046l -0.997281, -1.24513l -0.997908, -1.2498l -0.998546, -1.25495l -0.999151, -1.25937l -0.999756, -1.26428l -1.00034, -1.26919l -1.00092, -1.27361l -1.00147, -1.27852l -1.00203, -1.28319l -1.00257,
 -1.28785l -1.00308, -1.29276l -1.00361, -1.29718l -1.0041, -1.30185l -1.00459, -1.30651l -1.00507, -1.31118l -1.00553, -1.31585l -1.006, -1.32051l -1.00644, -1.32493l -1.00688, -1.32984l -1.00731, -1.33402l -1.00772, -1.33868l -1.00813, -1.34335l
 -1.00852, -1.34777l -1.00891, -1.35243l -1.0093, -1.35685l -1.00965, -1.36127l -1.01001, -1.36569l -1.01036, -1.37036l -1.01071, -1.37477l -1.01103, -1.37919l -1.01136, -1.38337l -1.01168, -1.38803l -1.01197, -1.39245l -1.01227, -1.39663l -1.01256,
 -1.40129l -1.01284, -1.40547l -1.01311, -1.40964l -1.01338, -1.41431l -1.01365, -1.41848l -1.01389, -1.42265l -1.01413, -1.42707l -1.01437, -1.43125l -1.0146, -1.43542l -1.01482, -1.43984l -1.01503, -1.44402l -1.01524, -1.44844l -1.01543, -1.45237l
 -1.01563, -1.45654l -1.01582, -1.46071l -1.01599, -1.46513l -1.01617, -1.46906l -1.01634, -1.47324l -1.01649, -1.47716l -1.01665, -1.48158l -1.01681, -1.48551l -1.01694, -1.48944l -1.01708, -1.49362l -1.01721, -1.49779l -1.01732, -1.50172l -1.01746,
 -1.50565l -1.01757, -1.50958l -1.01767, -1.51375l -1.01777, -1.51768l -1.01787, -1.52161l -1.01796, -1.52554l -1.01805, -1.52946l -1.01813, -1.53315l -1.01821, -1.53732l -1.01828, -1.541l -1.01834, -1.54518l -1.0184, -1.54862l -1.01845, -1.55279l
 -1.01851, -1.55647l -1.01856, -1.56016l -1.0186, -1.56409l -1.01863, -1.56654l -1.01866, -1.57391l -1.0187, -1.57391l -1.01871, -1.57882l -1.01873, -1.58373l -1.01875, -1.58618l -1.01876, -1.58864l -1.01877, -1.59355l -1.01877, -1.59846l -1.01876,
 -1.60092l -1.01876, -1.60583l -1.01875, -1.60828l -1.01873, -1.61074l -1.01871, -1.61565l -1.0187, -1.6181l -1.01866, -1.62301l -1.01863, -1.62547l -1.01861, -1.63038l -1.01856, -1.63284l -1.01852, -1.63529l -1.01848, -1.6402l -1.01843, -1.64266l
 -1.01838, -1.64757l -1.01833, -1.65002l -1.01826, -1.65248l -1.0182, -1.65739l -1.01814, -1.65985l -1.01806, -1.66476l -1.018, -1.66721l -1.01792, -1.66967l -1.01785, -1.67212l -1.01776, -1.67703l -1.01767, -1.67949l -1.01759, -1.6844l -1.01749,
 -1.68686l -1.0174, -1.68931l -1.01731, -1.69177l -1.0172, -1.69668l -1.01711, -1.69913l -1.017, -1.70159l -1.01689, -1.7065l -1.01677, -1.70895l -1.01666, -1.71141l -1.01655, -1.71386l -1.01643, -1.71878l -1.0163, -1.71878l -1.01618, -1.72369l
 -1.01606, -1.7286l -1.01592, -1.7286l -1.0158, -1.73351l -1.01566, -1.73596l -1.01552, -1.73842l -1.01538, -1.74087l -1.01524, -1.74578l -1.0151, -1.74578l -1.01495, -1.7507l -1.01479, -1.75315l -1.01465, -1.75561l -1.01449, -1.75806l -1.01433,
 -1.76297l -1.01418, -1.76297l -1.01402, -1.76788l -1.01385, -1.77034l -1.01368, -1.77034l -1.01353, -1.77525l -1.01335, -1.7777l -1.01318, -1.78262l -1.013, -1.78262l -1.01283, -1.78507l -1.01265, -1.78753l -1.01248, -1.79244l -1.0123, -1.79244l
 -0.277917, -0.493534" fill="none" stroke="#0000ff" stroke-width="3" stroke-dasharray=" 3, 3"/>
<path d="M91.2087,384.431l 1.11191, -0.0261961" fill="none" stroke="#ff00ff" stroke-width="3" stroke-dasharray=" 5, 5"/>
<path d="M92.3206,384.405l 7.92475, -0.198126l 7.68286, -0.203675l 7.44739, -0.209224l 7.21837, -0.214798l 6.99573, -0.220322l 6.77941, -0.225896l 6.56938, -0.231421l 6.36552, -0.23697l 6.16774, -0.242519l 5.9759, -0.248044l 5.78993, -0.253593l
 5.60966, -0.259118l 5.43494, -0.264667l 5.26567, -0.270167l 5.10168, -0.275716l 4.94283, -0.281241l 4.78897, -0.286741l 4.63996, -0.292265l 4.49566, -0.29779l 4.35591, -0.303315l 4.22056, -0.30879l 4.08949, -0.314315l 3.96255, -0.319815l 3.83961,
 -0.32534l 3.72053, -0.330815l 3.60518, -0.336291l 3.49344, -0.341791l 3.38519, -0.347291l 3.28029, -0.352766l 3.17863, -0.358242l 3.08012, -0.363742l 2.98463, -0.369193l 2.89206, -0.374668l 2.8023, -0.380119l 2.71526, -0.385595l 2.63086, -0.391046l
 2.54897, -0.396497l 2.46953, -0.401948l 2.39245, -0.407399l 2.31765, -0.41285l 2.24504, -0.418276l 2.17455, -0.423703l 2.10611, -0.429154l 2.03964, -0.434556l 1.97508, -0.440006l 1.91234, -0.445408l 1.85141, -0.45081l 1.79218, -0.456212l 1.7346,
 -0.461639l 1.67864, -0.467016l 1.62422, -0.472442l 1.57129, -0.477721l 1.51982, -0.483221l 1.46972, -0.488623l 1.42099, -0.494025l 1.37356, -0.499181l 1.32739, -0.504829l 1.28245, -0.509985l 1.23869, -0.515387l 1.19606, -0.520789l 1.15454,
 -0.526191l 1.11409, -0.531347l 1.07468, -0.536749l 1.03628, -0.542151l 0.998837, -0.547307l 0.962336, -0.552709l 0.926752, -0.558111l 0.892053, -0.563513l 0.858194, -0.568669l 0.825185, -0.573825l 0.792961, -0.579227l 0.76152, -0.584629l 0.730841,
 -0.589785l 0.7009, -0.595187l 0.671643, -0.600344l 0.643102, -0.6055l 0.615222, -0.610902l 0.58798, -0.616058l 0.561388, -0.62146l 0.535389, -0.626616l 0.509994, -0.631773l 0.485171, -0.637175l 0.460918, -0.642331l 0.437192, -0.647487l 0.414004,
 -0.652644l 0.391341, -0.6578l 0.36916, -0.663202l 0.347472, -0.668358l 0.326254, -0.673514l 0.305506, -0.678425l 0.285184, -0.683827l 0.265321, -0.688983l 0.24586, -0.69414l 0.226815, -0.699296l 0.208172, -0.704452l 0.189932, -0.709363l 0.17204,
 -0.714765l 0.15455, -0.719676l 0.137408, -0.725078l 0.120601, -0.729988l 0.104153, -0.735145l 0.0880296, -0.740056l 0.0722421, -0.745212l 0.0567568, -0.750368l 0.0415739, -0.755525l 0.0267045, -0.760435l 0.0121262, -0.765346l -0.00217219, -0.770748l
 -0.0161794, -0.775659l -0.0299404, -0.78057l -0.0434214, -0.78548l -0.0566449, -0.790882l -0.069622, -0.795547l -0.0823416, -0.800704l -0.0948373, -0.805615l -0.107087, -0.810771l -0.119112, -0.815436l -0.130914, -0.820592l -0.142491, -0.825749l
 -0.153867, -0.830414l -0.165042, -0.835325l -0.175992, -0.840481l -0.186752, -0.845392l -0.197322, -0.850057l -0.207702, -0.855213l -0.217891, -0.860124l -0.227901, -0.86479l -0.237743, -0.8697l -0.247406, -0.874857l -0.256901, -0.879522l -0.266216,
 -0.884433l -0.275398, -0.889098l -0.284389, -0.894254l -0.293257, -0.89892l -0.301945, -0.903585l -0.310511, -0.908741l -0.318909, -0.913161l -0.327183, -0.918317l -0.335301, -0.922982l -0.343295, -0.927648l -0.351156, -0.932558l -0.358881,
 -0.937224l -0.366484, -0.941889l -0.373964, -0.9468l -0.381309, -0.951465l -0.388542, -0.95613l -0.395652, -0.961041l -0.40265, -0.965461l -0.409547, -0.970371l -0.416321, -0.975037l -0.422983, -0.979702l -0.429545, -0.984367l -0.436005, -0.988787l
 -0.442365, -0.993698l -0.448613, -0.998363l -0.454771, -1.00278l -0.46084, -1.00745l -0.466797, -1.01211l -0.472675, -1.01678l -0.478453, -1.0212l -0.484152, -1.02586l -0.489761, -1.03053l -0.495281, -1.03495l -0.500723, -1.03961l -0.506075,
 -1.04403l -0.511349, -1.04845l -0.516533, -1.05312l -0.521661, -1.05778l -0.5267, -1.06196l -0.53166, -1.06662l -0.536553, -1.07104l -0.541368, -1.07546l -0.546126, -1.08013l -0.550795, -1.0843l -0.555409, -1.08872l -0.559943, -1.09339l -0.564422,
 -1.09756l -0.568834, -1.10223l -0.573178, -1.1064l -0.577466, -1.11082l -0.581676, -1.11524l -0.585853, -1.11941l -0.58994, -1.12383l -0.593993, -1.12825l -0.597979, -1.13267l -0.601909, -1.13685l -0.605772, -1.14102l -0.609601, -1.14544l -0.613363,
 -1.14962l -0.61707, -1.15403l -0.620742, -1.15821l -0.624348, -1.16238l -0.627908, -1.1668l -0.631413, -1.17098l -0.634873, -1.17515l -0.638288, -1.17908l -0.641658, -1.1835l -0.644972, -1.18767l -0.648253, -1.19185l -0.651489, -1.19602l -0.654657,
 -1.2002l -0.657815, -1.20412l -0.660905, -1.2083l -0.663973, -1.21247l -0.666985, -1.21665l -0.669952, -1.22058l -0.672897, -1.22475l -0.675797, -1.22868l -0.678652, -1.23261l -0.681474, -1.23703l -0.684251, -1.24071l -0.686994, -1.24488l -0.689704,
 -1.24881l -0.69238, -1.25274l -0.695022, -1.25667l -0.69762, -1.26084l -0.700184, -1.26453l -0.702726, -1.2687l -0.705222, -1.27238l -0.707686, -1.27631l -0.710138, -1.28049l -0.712523, -1.28417l -0.714908, -1.28785l -0.717248, -1.29203l -0.719566,
 -1.29571l -0.721839, -1.29964l -0.724089, -1.30332l -0.726317, -1.30725l -0.728512, -1.31093l -0.730684, -1.31462l -0.732811, -1.31855l -0.734928, -1.32223l -0.737022, -1.32616l -0.739059, -1.3296l -0.741108, -1.33352l -0.743101, -1.33696l
 -0.745083, -1.34089l -0.747031, -1.34457l -0.748969, -1.34801l -0.750872, -1.35194l -0.752753, -1.35538l -0.754612, -1.35906l -0.756437, -1.36274l -0.758251, -1.36618l -0.760042, -1.36986l -0.7618, -1.3733l -0.763547, -1.37698l -0.765271, -1.38042l
 -0.766962, -1.38411l -0.768641, -1.3873l -0.770299, -1.39123l -0.771933, -1.39442l -0.773546, -1.39786l -0.775147, -1.40154l -0.776714, -1.40473l -0.778271, -1.40841l -0.779805, -1.41161l -0.781327, -1.41504l -0.782817, -1.41848l -0.784306,
 -1.42192l -0.78575, -1.42511l -0.787206, -1.42855l -0.788617, -1.43199l -0.790039, -1.43518l -0.791416, -1.43861l -0.792782, -1.44181l -0.794148, -1.445l -0.79548, -1.44819l -0.796801, -1.45163l -0.7981, -1.45482l -0.799399, -1.45728l -0.800664,
 -1.46096l -0.801918, -1.46587l -0.803161, -1.46587l -0.804382, -1.47078l -0.805591, -1.47569l -0.806789, -1.47569l -0.807976, -1.4806l -0.809129, -1.48306l -0.810282, -1.48551l -0.811425, -1.49042l -0.812533, -1.49288l -0.813653, -1.49533l
 -0.814739, -1.49779l -0.815825, -1.5027l -0.816889, -1.5027l -0.817952, -1.50761l -0.818982, -1.51252l -0.820013, -1.51252l -0.82102, -1.51498l -0.822028, -1.51989l -0.823025, -1.52234l -0.823987, -1.5248l -0.824962, -1.52725l -0.825913, -1.53217l
 -0.826843, -1.53462l -0.827783, -1.53462l -0.828701, -1.53953l -0.829597, -1.54199l -0.830493, -1.54444l -0.831389, -1.54935l -0.832251, -1.54935l -0.833102, -1.55426l -0.833964, -1.55426l -0.834804, -1.55917l -0.835621, -1.56163l -0.83645,
 -1.56409l -0.837256, -1.56654l -0.838051, -1.569l -0.838834, -1.57145l -0.839607, -1.57391l -0.84038, -1.57882l -0.841141, -1.57882l -0.84188, -1.58373l -0.842619, -1.58373l -0.843358, -1.58618l -0.844063, -1.59109l -0.84478, -1.59109l -0.845474,
 -1.59601l -0.846168, -1.59846l -0.846851, -1.59846l -0.847523, -1.60337l -0.848195, -1.60337l -0.848844, -1.60828l -0.849483, -1.60828l -0.850132, -1.61319l -0.850759, -1.61319l -0.851386, -1.6181l -0.851991, -1.6181l -0.852607, -1.62056l -0.8532,
 -1.62301l -0.853782, -1.62793l -0.854376, -1.62793l -0.854947, -1.63038l -0.855507, -1.63038l -0.856066, -1.63529l -0.856626, -1.63775l -0.857164, -1.6402l -0.85769, -1.6402l -0.858227, -1.64266l -0.858754, -1.64757l -0.859269, -1.64757l -0.859773,
 -1.65002l -0.860265, -1.65248l -0.860769, -1.65248l -0.861251, -1.65739l -0.861732, -1.65739l -0.862202, -1.65985l -0.779846, -1.5027" fill="none" stroke="#ff00ff" stroke-width="3" stroke-dasharray=" 5, 5"/>
<rect x="113.886" y="233.107" width="170.079" height="93.2428" fill="white"/>
<text xml:space="preserve" x="201.93" y="246.102" fill="black" font-size="17.6088" font-family="Helvetica" font-weight="bold">
Be
</text>
<text xml:space="preserve" x="188.935" y="237.168" fill="black" font-size="11.9058" font-family="Helvetica" font-weight="bold">
10
</text>
<text xml:space="preserve" x="130.455" y="246.102" fill="black" font-size="17.6088" font-family="Helvetica" font-weight="bold">
Be(p,p)
</text>
<text xml:space="preserve" x="117.46" y="237.168" fill="black" font-size="11.9058" font-family="Helvetica" font-weight="bold">
10
</text>
<text xml:space="preserve" x="155.634" y="264.784" fill="black" font-size="17.6088" font-family="Helvetica" font-weight="bold" font-style="oblique">
g.s.
</text>
<path d="M120.264,261.08h 29.7638" fill="none" stroke="#ff0000" stroke-width="3"/>
<text xml:space="preserve" x="155.634" y="283.465" fill="black" font-size="17.6088" font-family="Helvetica" font-weight="bold" font-style="oblique">
Ex=3.368 MeV
</text>
<path d="M120.264,279.728h 29.7638" fill="none" stroke="#00ff00" stroke-width="3" stroke-dasharray=" 3, 3"/>
<text xml:space="preserve" x="155.634" y="302.146" fill="black" font-size="17.6088" font-family="Helvetica" font-weight="bold" font-style="oblique">
Ex=6.812 MeV
</text>
<path d="M120.264,298.377h 29.7638" fill="none" stroke="#0000ff" stroke-width="3" stroke-dasharray=" 3, 3"/>
<text xml:space="preserve" x="155.634" y="320.827" fill="black" font-size="17.6088" font-family="Helvetica" font-weight="bold" font-style="oblique">
Ex=30 MeV
</text>
<path d="M120.264,317.025h 29.7638" fill="none" stroke="#ff00ff" stroke-width="3" stroke-dasharray=" 5, 5"/></svg>
